<svg width="22" height="24" viewBox="0 0 22 24" fill="none" xmlns="http://www.w3.org/2000/svg">
<path d="M12.5757 22.3713L11.4917 23.5613C11.0327 24.0652 10.2905 24.0652 9.83643 23.5613L0.344238 13.1455C-0.114746 12.6416 -0.114746 11.8268 0.344238 11.3283L9.83643 0.907103C10.2954 0.403199 11.0376 0.403199 11.4917 0.907103L12.5757 2.09717C13.0395 2.60644 13.0298 3.43734 12.5562 3.93589L6.67236 10.0899H20.7056C21.355 10.0899 21.8774 10.6635 21.8774 11.3765V13.0919C21.8774 13.8049 21.355 14.3785 20.7056 14.3785H6.67236L12.5562 20.5325C13.0347 21.0311 13.0444 21.862 12.5757 22.3713Z" fill="white"/>
</svg>
