<svg width="11" height="8" viewBox="0 0 11 8" fill="none" xmlns="http://www.w3.org/2000/svg">
<path d="M10.3131 2.47656C10.3906 2.41602 10.5058 2.47266 10.5058 2.56836V6.5625C10.5058 7.08008 10.0786 7.5 9.55199 7.5H1.28527C0.758667 7.5 0.331421 7.08008 0.331421 6.5625V2.57031C0.331421 2.47266 0.444691 2.41797 0.524178 2.47852C0.969309 2.81836 1.55951 3.25 3.58644 4.69727C4.00574 4.99805 4.71318 5.63086 5.41863 5.62695C6.12806 5.63281 6.84941 4.98633 7.25281 4.69727C9.27974 3.25 9.86795 2.81641 10.3131 2.47656ZM5.41863 5C5.87966 5.00781 6.54338 4.42969 6.87723 4.19141C9.51423 2.31055 9.71494 2.14648 10.323 1.67773C10.4383 1.58984 10.5058 1.45312 10.5058 1.30859V0.9375C10.5058 0.419922 10.0786 0 9.55199 0H1.28527C0.758667 0 0.331421 0.419922 0.331421 0.9375V1.30859C0.331421 1.45312 0.398985 1.58789 0.514242 1.67773C1.12232 2.14453 1.32303 2.31055 3.96003 4.19141C4.29388 4.42969 4.9576 5.00781 5.41863 5Z" fill="#929292"/>
</svg>
