<svg width="12" height="20" viewBox="0 0 12 20" fill="none" xmlns="http://www.w3.org/2000/svg">
<path d="M3.09142 11.2674C3.09142 8.43325 7.12756 6.56303 7.12756 3.47161C7.12756 1.66284 5.82186 0.0921666 5.62601 0C5.64137 0.126729 5.64905 0.257299 5.64905 0.384028C5.64905 3.92092 0 6.29421 0 10.699C0 12.6115 1.23657 13.7405 2.55378 14.858C5.05381 16.6514 5.55304 17.6 5.55304 18.1837C5.55304 18.5716 5.36871 18.8366 5.36871 19.0401C5.87179 18.3988 6.03692 17.815 6.04076 17.2582C6.04076 16.1215 5.20742 15.0961 4.34335 13.9364C3.72891 13.08 3.09142 12.3004 3.09142 11.2674ZM10.9755 9.76966C10.5108 7.20436 7.9801 4.99236 7.33877 4.74274L7.49238 5.01924C7.58455 5.2151 7.62295 5.43783 7.62295 5.67593C7.62295 7.39253 5.54152 9.94632 5.44935 10.1575C5.36487 10.3534 5.32647 10.5608 5.32647 10.7643C5.32647 11.5362 5.91019 12.3811 6.01388 12.3811C6.10604 12.3811 8.18747 10.2535 8.24508 9.01313C8.49086 9.46244 8.59454 9.88103 8.59454 10.2958C8.59454 11.878 6.98931 14.017 6.98931 14.017C6.98931 14.4625 8.21435 16.06 8.3526 16.06C8.39101 16.06 8.43709 16.0063 8.47549 15.9679C9.93096 14.4586 11.06 12.7036 11.06 10.7144C11.06 10.4071 11.0331 10.0922 10.9755 9.76966Z" fill="#FFC000"/>
</svg>
