<svg width="11" height="10" viewBox="0 0 11 10" fill="none" xmlns="http://www.w3.org/2000/svg">
<path d="M5.09849 0C2.22606 0 0 2.06331 0 4.8502C0 6.30786 0.609439 7.56754 1.60145 8.4377C1.77273 8.58911 1.73745 8.67682 1.76657 9.61169C1.76887 9.67718 1.78743 9.74112 1.82064 9.79793C1.85384 9.85475 1.90069 9.90271 1.95709 9.93765C2.01349 9.97258 2.07773 9.99342 2.14421 9.99835C2.21069 10.0033 2.27738 9.99215 2.33848 9.96593C3.42381 9.49617 3.43776 9.45907 3.62176 9.50827C6.76619 10.3589 10.1744 8.38105 10.1744 4.8502C10.1744 2.06331 7.97112 0 5.09849 0ZM8.15984 3.73246L6.6624 6.0625C6.60585 6.15012 6.5315 6.22531 6.44401 6.28337C6.35651 6.34142 6.25776 6.38109 6.15394 6.39989C6.05012 6.41868 5.94347 6.4162 5.84067 6.39259C5.73787 6.36899 5.64114 6.32477 5.55655 6.2627L4.36515 5.38629C4.31189 5.34703 4.24711 5.32581 4.18054 5.32581C4.11396 5.32581 4.04918 5.34703 3.99592 5.38629L2.38832 6.58468C2.17376 6.74456 1.89273 6.49194 2.03735 6.26875L3.53479 3.93871C3.59132 3.85107 3.66566 3.77585 3.75315 3.71778C3.84064 3.65971 3.9394 3.62003 4.04323 3.60123C4.14706 3.58243 4.25372 3.58492 4.35652 3.60855C4.45933 3.63217 4.55606 3.67642 4.64064 3.73851L5.83162 4.61472C5.88488 4.65398 5.94966 4.6752 6.01624 4.6752C6.08282 4.6752 6.1476 4.65398 6.20086 4.61472L7.80928 3.41754C8.02343 3.25665 8.30446 3.50907 8.15984 3.73246Z" fill="#929292"/>
</svg>
