<svg width="13" height="8" viewBox="0 0 13 8" fill="none" xmlns="http://www.w3.org/2000/svg">
<path d="M6.54159 3.92397V3.90474L5.50171 2.63911C5.50171 2.63911 5.25799 2.66989 4.99395 2.92955C4.81116 3.10843 0.0768627 7.5285 0.0504595 7.56312C-0.0917117 7.75547 0.0829557 7.69392 0.369329 7.59582C0.385577 7.59582 2.69484 6.89184 2.69484 6.89184C2.705 6.8803 2.69281 6.88992 2.70703 6.8803C2.6989 6.78221 2.69078 6.37636 2.68672 6.34751C2.67453 6.24749 2.7314 6.21479 2.82889 6.17632L4.70961 5.5262C4.7218 5.51081 6.50706 3.95474 6.54159 3.92397ZM9.79325 6.23402C10.0634 6.5437 10.2137 6.48984 10.4188 6.4129C10.4838 6.38982 12.7626 5.49735 12.8113 5.47234C12.9738 5.38963 12.7768 5.15113 12.6651 5.02226C12.6225 4.97417 8.49949 0.298281 8.45684 0.246348C8.25983 0.0116885 8.1664 -0.00177556 7.67693 0.00014788C7.46976 0.00014788 5.5078 0.00976506 5.31079 0.0116885C4.92084 0.0136119 4.64259 0.0059182 4.92084 0.33675C5.07723 0.519477 9.67748 6.10131 9.79325 6.23402ZM12.8946 6.2648C12.8479 6.25903 12.395 6.1744 12.1228 6.12631C12.1228 6.12631 9.78715 7.09573 9.73638 7.11881C9.41141 7.25922 9.19003 7.05726 8.99099 6.83798L7.83128 5.41464C7.72161 5.39733 6.60455 5.22999 6.50503 5.23576C6.44207 5.2396 6.31005 5.25114 6.21256 5.29154C6.11304 5.33193 3.26353 6.30711 3.16198 6.34366C3.05839 6.38213 2.93044 6.4129 2.93653 6.48984C2.9406 6.53793 2.97715 6.53985 3.02996 6.55716C3.0848 6.57255 9.14129 7.85741 9.28549 7.88626C9.60233 7.94973 10.0674 8.08822 10.3741 7.91896C10.4168 7.89588 12.8885 6.44945 12.9291 6.42252C13.0388 6.34558 13.0165 6.29173 12.8946 6.2648Z" fill="#929292"/>
</svg>
