<svg width="11" height="10" viewBox="0 0 11 10" fill="none" xmlns="http://www.w3.org/2000/svg">
<path d="M10.2157 7.06635L7.98999 6.12884C7.89491 6.08901 7.78924 6.08062 7.68889 6.10492C7.58854 6.12923 7.49893 6.18492 7.43357 6.2636L6.4479 7.44722C4.90099 6.73037 3.65609 5.5068 2.92674 3.98642L4.131 3.01765C4.21122 2.95352 4.26799 2.86545 4.29274 2.76678C4.31748 2.6681 4.30883 2.56418 4.26811 2.47076L3.31425 0.283226C3.26956 0.182523 3.19052 0.100302 3.09075 0.0507415C2.99099 0.00118071 2.87676 -0.0126136 2.76776 0.0117372L0.701045 0.480495C0.595954 0.504347 0.502192 0.562504 0.435062 0.645476C0.367931 0.728447 0.331397 0.831332 0.331421 0.937339C0.331421 5.94719 4.46286 10 9.55215 10C9.66004 10.0001 9.76476 9.96418 9.84922 9.89819C9.93368 9.83221 9.99288 9.74003 10.0172 9.63671L10.4941 7.60542C10.5187 7.49777 10.5044 7.38505 10.4536 7.28666C10.4027 7.18827 10.3186 7.11036 10.2157 7.06635Z" fill="#929292"/>
</svg>
