<svg width="19" height="22" viewBox="0 0 19 22" fill="none" xmlns="http://www.w3.org/2000/svg">
<path d="M17.9478 13.4879L16.3167 12.4532C16.4814 11.4773 16.4814 10.4762 16.3167 9.50036L17.9478 8.46561C18.1354 8.34784 18.2196 8.10387 18.1584 7.87673C17.7334 6.37929 17.0097 5.02486 16.064 3.89757C15.9185 3.72511 15.6811 3.68305 15.4974 3.80083L13.8663 4.83558C13.1809 4.18781 12.3922 3.68726 11.5384 3.35916V1.29387C11.5384 1.05832 11.389 0.852209 11.1785 0.801734C9.77328 0.456817 8.33364 0.473642 6.99739 0.801734C6.7868 0.852209 6.63748 1.05832 6.63748 1.29387V3.36337C5.78748 3.69567 4.99875 4.19622 4.30956 4.83978L2.68232 3.80503C2.49471 3.68726 2.26115 3.72511 2.11565 3.90178C1.16994 5.02486 0.446291 6.37929 0.0212928 7.88094C-0.043797 8.10808 0.0442656 8.35204 0.231877 8.46982L1.86295 9.50457C1.69831 10.4804 1.69831 11.4815 1.86295 12.4574L0.231877 13.4921C0.0442656 13.6099 -0.0399682 13.8539 0.0212928 14.081C0.446291 15.5785 1.16994 16.9329 2.11565 18.0602C2.26115 18.2326 2.49853 18.2747 2.68232 18.1569L4.31339 17.1222C4.99875 17.7699 5.78748 18.2705 6.64131 18.5986V20.6681C6.64131 20.9036 6.79063 21.1097 7.00122 21.1602C8.40639 21.5051 9.84603 21.4883 11.1823 21.1602C11.3929 21.1097 11.5422 20.9036 11.5422 20.6681V18.5986C12.3922 18.2663 13.1809 17.7657 13.8701 17.1222L15.5012 18.1569C15.6888 18.2747 15.9223 18.2368 16.0678 18.0602C17.0136 16.9371 17.7372 15.5827 18.1622 14.081C18.2196 13.8497 18.1354 13.6057 17.9478 13.4879ZM9.08792 14.3418C7.39941 14.3418 6.02487 12.8318 6.02487 10.9768C6.02487 9.12179 7.39941 7.61173 9.08792 7.61173C10.7764 7.61173 12.151 9.12179 12.151 10.9768C12.151 12.8318 10.7764 14.3418 9.08792 14.3418Z" fill="white"/>
</svg>
