<svg width="11" height="10" viewBox="0 0 11 10" fill="none" xmlns="http://www.w3.org/2000/svg">
<path d="M2.13663 4.375H0.564997C0.304596 4.375 0.0935059 4.58486 0.0935059 4.84375V9.53125C0.0935059 9.79014 0.304596 10 0.564997 10H2.13663C2.39704 10 2.60813 9.79014 2.60813 9.53125V4.84375C2.60813 4.58486 2.39704 4.375 2.13663 4.375ZM1.35082 9.21875C1.09042 9.21875 0.879325 9.00889 0.879325 8.75C0.879325 8.49111 1.09042 8.28125 1.35082 8.28125C1.61122 8.28125 1.82231 8.49111 1.82231 8.75C1.82231 9.00889 1.61122 9.21875 1.35082 9.21875ZM7.63737 1.59086C7.63737 2.4193 7.12717 2.88398 6.98362 3.4375H8.98202C9.63812 3.4375 10.1489 3.97941 10.152 4.57223C10.1536 4.92258 10.0037 5.29975 9.77008 5.53311L9.76792 5.53525C9.96115 5.99105 9.92974 6.62973 9.58506 7.08738C9.7556 7.59314 9.5837 8.21441 9.26322 8.54748C9.34766 8.89119 9.30731 9.18371 9.14244 9.4192C8.74148 9.99193 7.74769 10 6.90732 10L6.85143 9.99998C5.90281 9.99965 5.12644 9.65627 4.50262 9.38035C4.18913 9.2417 3.77925 9.07006 3.46826 9.06437C3.33978 9.06203 3.23678 8.95779 3.23678 8.83004V4.65484C3.23678 4.59234 3.26197 4.53236 3.30668 4.48842C4.08491 3.72389 4.41956 2.91445 5.05742 2.27922C5.34826 1.98953 5.45403 1.55195 5.55628 1.12879C5.64364 0.767441 5.82639 0 6.22289 0C6.69438 0 7.63737 0.15625 7.63737 1.59086Z" fill="white"/>
</svg>
